# xmcd
#
# Track frame offsets: 
#        150
#        16604
#        37002
#        67139
#        86630
#        107304
#        123683
#        151042
#        169473
#        186658
#        210772
#
# Disc length: 3045 seconds
#
# Revision: 0
# Processed by: cddbd v1.5.2PL0 Copyright (c) Steve Scherf et al.
# Submitted via: ExactAudioCopy v1.0b4
#
DISCID=8e0be30b
DTITLE=Kozmic Blue - Home
DYEAR=2014
DGENRE=Blues Rock
TTITLE0=As Mean As Me
TTITLE1=I've Been Loving You Too Long
TTITLE2=Love Is Good For Me
TTITLE3=So Long
TTITLE4=Home
TTITLE5=I Believe In Love
TTITLE6=I Could Not Follow You
TTITLE7=I Got The Music
TTITLE8=I Got You
TTITLE9=Higher
TTITLE10=Little Song
EXTD=
EXTT0=
EXTT1=
EXTT2=
EXTT3=
EXTT4=
EXTT5=
EXTT6=
EXTT7=
EXTT8=
EXTT9=
EXTT10=
PLAYORDER=
